<svg viewBox="0 0 286 90" xmlns="http://www.w3.org/2000/svg">
<path d="M77.5,59.1c-7,0-12.6-5.7-12.6-12.6s5.7-12.6,12.6-12.6s12.6,5.7,12.6,12.6S84.5,59.1,77.5,59.1 M77.5,22
	C64,22,53,33,53,46.5S64,71,77.5,71S102,60,102,46.5C102.1,33,91.1,22,77.5,22 M161.5,22.4c-6.2,0-10.9,2.2-14,6.6
	c-2.7-4.3-7-6.6-12.7-6.6c-5.9,0-10.2,2-13,6.2v-4.8h-12.1v45.7h12.1V43.7c0-3.3,0.8-6,2.4-7.7c1.6-1.8,3.7-2.6,6.5-2.6
	c2.5,0,4.4,0.8,5.9,2.3c1.4,1.5,2,3.6,2,6.4v27.3h12.1V43.7c0-3.3,0.8-6,2.3-7.7c1.5-1.8,3.6-2.6,6.5-2.6c2.5,0,4.4,0.8,5.9,2.3
	c1.4,1.5,2,3.6,2,6.4v27.3h12.1V41.3c0-5.8-1.6-10.3-4.8-13.7C171.2,24.1,166.8,22.4,161.5,22.4 M268.3,23.1c-6.4,0-11,2.1-14,6.4
	v-5.1h-12.1V70h12.1V45.3c0-3.7,0.9-6.6,2.8-8.5c1.9-1.9,4.3-2.8,7.5-2.8c2.8,0,5,0.8,6.8,2.4c1.7,1.6,2.5,3.9,2.5,7v26.5H286V42
	c0-6-1.7-10.5-5-13.9C277.7,24.7,273.5,23.1,268.3,23.1 M35.8,53.1c-0.5,0.9-1.2,1.7-1.9,2.5c-2.5,2.5-5.6,3.7-9.1,3.7
	s-6.6-1.2-9.1-3.7c-2.4-2.5-3.7-5.6-3.7-9.1c0-3.6,1.2-6.7,3.7-9.1c2.4-2.4,5.4-3.7,9.1-3.7c3.5,0,6.7,1.2,9.1,3.7
	c0.8,0.8,1.4,1.6,1.9,2.4l10-5.7c-1.9-3.6-4.7-6.5-8.6-8.6c-3.7-2.1-7.9-3.2-12.5-3.2c-7.1,0-12.9,2.3-17.7,7S0,39.8,0,46.5
	C0,53.4,2.3,59,7.1,63.7s10.6,7,17.7,7c4.5,0,8.7-1.1,12.5-3.2c3.7-2.1,6.7-5,8.7-8.7L35.8,53.1z M210.7,37.2
	c-7,0-12.6-5.7-12.6-12.6S203.8,12,210.7,12c7,0,12.6,5.7,12.6,12.6S217.7,37.2,210.7,37.2 M210.7,0c-13.5,0-24.5,11-24.5,24.5
	s11,24.5,24.5,24.5s24.5-11,24.5-24.5C235.3,11,224.3,0,210.7,0 M231.8,69.4c-4.3-7.2-12.1-11.9-21.1-11.9s-16.8,4.7-21.1,11.9
	H231.8z" fill="#272828"/>
<path d="M121.6,83.1v1.7h3.7v1.4h-3.7v1.8h4.3v1.5h-6.2v-8.1h6.1V83h-4.2V83.1z M91.7,81.7v8.1h1.8v-8.1H91.7z
	 M108.8,89.7h1.5v-8.1h-1.8v4.8l-4-4.8h-1.5v8.1h1.8v-4.8L108.8,89.7z M82.7,83.1v-1.5h-6.1v8.1h6.3v-1.5h-4.4v-1.8h3.7V85h-3.7
	v-1.7h4.2V83.1z M65.5,89.2c-0.7,0.3-1.4,0.5-2.3,0.5h-3.6v-8.1h3.6c0.9,0,1.6,0.2,2.3,0.5c0.7,0.3,1.2,0.8,1.6,1.4
	c0.4,0.6,0.6,1.3,0.6,2.1c0,0.8-0.2,1.5-0.6,2.1C66.7,88.4,66.2,88.9,65.5,89.2z M65.4,87.1c0.2-0.4,0.3-0.8,0.3-1.3
	c0-0.5-0.1-0.9-0.3-1.3c-0.2-0.4-0.5-0.7-0.9-0.9c-0.4-0.2-0.9-0.3-1.4-0.3h-1.7v4.9h1.7c0.5,0,1-0.1,1.4-0.3
	C64.9,87.7,65.2,87.4,65.4,87.1z M224.6,81.7v4.5c0,1.2,0.3,2.1,1,2.7c0.6,0.6,1.5,0.9,2.7,0.9c1.1,0,2-0.3,2.7-0.9
	c0.6-0.6,1-1.5,1-2.7v-4.5h-1.8v4.4c0,0.8-0.2,1.3-0.5,1.6c-0.3,0.3-0.7,0.5-1.3,0.5s-1-0.2-1.3-0.5c-0.3-0.3-0.5-0.9-0.5-1.6v-4.4
	H224.6z M213.7,89.7v-6.6h2.6v-1.5h-7.1v1.5h2.6v6.6H213.7z M199.3,89.7h1.5v-8.1H199v4.8l-4-4.8h-1.5v8.1h1.8v-4.8L199.3,89.7z
	 M147.2,88l-0.7,1.7h-1.9l3.6-8.1h1.8l3.6,8.1h-1.9l-0.7-1.7H147.2z M147.8,86.6h2.5l-1.3-3.1L147.8,86.6z M246.5,87.2l1.8,2.6h-2
	l-1.5-2.2h-0.1h-1.6v2.2h-1.8v-8.1h3.5c0.7,0,1.3,0.1,1.8,0.3c0.5,0.2,0.9,0.6,1.2,1c0.3,0.4,0.4,1,0.4,1.6c0,0.6-0.1,1.1-0.4,1.5
	C247.4,86.6,247,86.9,246.5,87.2L246.5,87.2z M244.6,83.2h-1.5v2.8h1.5c0.6,0,1-0.1,1.3-0.4c0.3-0.2,0.4-0.6,0.4-1s-0.1-0.8-0.4-1
	C245.6,83.3,245.1,83.2,244.6,83.2z M184.3,83.1v-1.5h-6.1v8.1h6.3v-1.5h-4.3v-1.8h3.7V85h-3.7v-1.7h4.1V83.1z M164,83.8
	c0.2-0.2,0.5-0.4,0.8-0.5c0.3-0.1,0.7-0.2,1.1-0.2c0.4,0,0.8,0.1,1.1,0.2c0.3,0.1,0.7,0.4,0.9,0.7l1.2-1.1c-0.4-0.4-0.9-0.8-1.4-1
	c-0.6-0.2-1.2-0.4-1.9-0.4c-0.6,0-1.2,0.1-1.8,0.3c-0.5,0.2-1,0.5-1.4,0.9c-0.4,0.4-0.7,0.8-0.9,1.3c-0.2,0.5-0.3,1.1-0.3,1.7
	c0,0.6,0.1,1.2,0.3,1.7s0.5,0.9,0.9,1.3c0.4,0.4,0.9,0.7,1.4,0.9c0.5,0.2,1.1,0.3,1.7,0.3s1.1-0.1,1.7-0.3c0.6-0.2,1.1-0.4,1.5-0.8
	v-3.2h-1.7V88c-0.1,0.1-0.2,0.1-0.4,0.2c-0.3,0.1-0.7,0.2-1.1,0.2s-0.7-0.1-1-0.2c-0.3-0.1-0.6-0.3-0.8-0.5
	c-0.2-0.2-0.4-0.5-0.5-0.8c-0.1-0.3-0.2-0.7-0.2-1c0-0.4,0.1-0.7,0.2-1C163.6,84.3,163.8,84,164,83.8z" fill="#4E9F9F"/>
</svg>
