<svg xmlns="http://www.w3.org/2000/svg" xmlns:xlink="http://www.w3.org/1999/xlink" x="0px" y="0px"
	 viewBox="0 0 284 72">
<style type="text/css">
	.st0{fill:#282727;}
</style>
<path class="st0" d="M77.4,59.2c-6.9,0-12.4-5.6-12.4-12.4s5.6-12.4,12.4-12.4c6.9,0,12.4,5.6,12.4,12.4S84.3,59.2,77.4,59.2
	 M77.4,22.6c-13.3,0-24.2,10.8-24.2,24.2s10.8,24.2,24.2,24.2s24.2-10.8,24.2-24.2C101.7,33.4,90.9,22.6,77.4,22.6 M160.2,23
	c-6.1,0-10.7,2.2-13.8,6.5c-2.7-4.3-6.9-6.5-12.5-6.5c-5.8,0-10.1,2-12.8,6.1v-4.8h-11.9v45H121V43.9c0-3.3,0.8-5.9,2.4-7.6
	c1.6-1.8,3.7-2.6,6.4-2.6c2.5,0,4.4,0.8,5.8,2.3c1.4,1.5,2,3.6,2,6.3v26.9h11.9V43.9c0-3.3,0.8-5.9,2.3-7.6c1.5-1.8,3.6-2.6,6.4-2.6
	c2.5,0,4.4,0.8,5.8,2.3c1.4,1.5,2,3.6,2,6.3v26.9h11.9V41.6c0-5.7-1.6-10.1-4.8-13.5C169.8,24.7,165.5,23,160.2,23 M265.6,23.7
	c-6.3,0-10.8,2.1-13.8,6.3v-5.1h-11.9v45h11.9V45.5c0-3.7,0.9-6.5,2.8-8.4s4.3-2.8,7.4-2.8c2.8,0,5,0.8,6.7,2.4
	c1.7,1.6,2.5,3.9,2.5,6.9v26.2H283V42.3c0-5.9-1.7-10.3-5-13.7C274.8,25.2,270.7,23.7,265.6,23.7 M36.3,53.2
	c-0.5,0.9-1.2,1.7-1.9,2.5c-2.5,2.5-5.5,3.7-9,3.7s-6.5-1.2-9-3.7c-2.4-2.5-3.7-5.5-3.7-8.9c0-3.6,1.2-6.6,3.7-8.9
	c2.4-2.4,5.4-3.7,9-3.7c3.5,0,6.6,1.2,9,3.7c0.8,0.8,1.4,1.6,1.9,2.4l9.9-5.6c-1.9-3.6-4.7-6.4-8.5-8.5C34,24.1,30,23,25.4,23
	c-7,0-12.7,2.3-17.4,6.9S1,40.1,1,46.7c0,6.8,2.3,12.3,7,16.9s10.4,6.9,17.4,6.9c4.5,0,8.6-1.1,12.3-3.2c3.7-2.1,6.6-5,8.6-8.6
	L36.3,53.2z M208.8,37.6c-6.9,0-12.4-5.6-12.4-12.4s5.6-12.4,12.4-12.4s12.4,5.6,12.4,12.4S215.6,37.6,208.8,37.6 M208.8,0.9
	c-13.3,0-24.2,10.8-24.2,24.2s10.8,24.2,24.2,24.2c13.3,0,24.2-10.8,24.2-24.2C233,11.7,222.2,0.9,208.8,0.9 M229.6,69.3
	c-4.3-7.1-11.9-11.7-20.8-11.7s-16.5,4.7-20.8,11.7H229.6z"/>
</svg>
